<svg width="135" height="32" viewBox="0 0 135 32" fill="none" xmlns="http://www.w3.org/2000/svg">
<g clip-path="url(#clip0_18783_37937)">
<path d="M3.54206 14.0143C2.39173 14.5894 1.66504 15.7657 1.66504 17.0522V23.4443L28.0835 10.2307C29.2338 9.65519 29.9605 8.47934 29.9605 7.19286V0.800781L3.54206 14.0143Z" fill="url(#paint0_linear_18783_37937)"/>
<path d="M21.4728 20.8208C21.4728 22.2698 20.2985 23.4449 18.8495 23.4449H12.984L1.65723 29.1056H27.3314C28.7796 29.1056 29.9535 27.9318 29.9547 26.4832L29.9619 14.9531L22.9233 18.4735C22.0345 18.918 21.4732 19.8267 21.4732 20.8204L21.4728 20.8208Z" fill="url(#paint1_linear_18783_37937)"/>
</g>
<path d="M126.59 27.2088C125.514 27.2088 124.559 26.9823 123.724 26.5295C122.889 26.0624 122.224 25.4256 121.729 24.6189C121.247 23.8123 121.007 22.8924 121.007 21.8593C121.007 20.8403 121.24 19.9346 121.707 19.1421C122.189 18.3354 122.84 17.6985 123.66 17.2315C124.481 16.7504 125.394 16.5098 126.399 16.5098C127.389 16.5098 128.26 16.7362 129.01 17.1891C129.774 17.6278 130.368 18.2363 130.793 19.0147C131.232 19.7789 131.451 20.6493 131.451 21.6258C131.451 21.8097 131.437 22.0008 131.409 22.1989C131.394 22.3829 131.359 22.5952 131.303 22.8358L122.684 22.857V20.7766L130.008 20.7554L128.882 21.6258C128.854 21.0172 128.741 20.5077 128.543 20.0973C128.359 19.6869 128.083 19.3756 127.715 19.1633C127.361 18.9369 126.922 18.8236 126.399 18.8236C125.847 18.8236 125.366 18.951 124.955 19.2057C124.545 19.4463 124.226 19.7931 124 20.2459C123.788 20.6846 123.682 21.2083 123.682 21.8168C123.682 22.4395 123.795 22.9844 124.021 23.4514C124.262 23.9043 124.601 24.2581 125.04 24.5128C125.479 24.7534 125.988 24.8737 126.569 24.8737C127.092 24.8737 127.566 24.7888 127.991 24.6189C128.415 24.435 128.783 24.1661 129.095 23.8123L130.729 25.4468C130.234 26.0271 129.625 26.4658 128.904 26.763C128.196 27.0602 127.425 27.2088 126.59 27.2088Z" fill="black"/>
<path d="M113.537 27.2087C112.589 27.2087 111.739 26.9752 110.989 26.5082C110.239 26.0411 109.645 25.4043 109.206 24.5976C108.782 23.791 108.569 22.8852 108.569 21.8804C108.569 20.8615 108.782 19.9487 109.206 19.142C109.645 18.3353 110.232 17.6985 110.968 17.2315C111.718 16.7644 112.574 16.5309 113.537 16.5309C114.273 16.5309 114.931 16.6795 115.511 16.9767C116.105 17.2739 116.579 17.6914 116.933 18.2292C117.301 18.7528 117.499 19.3472 117.528 20.0123V23.6636C117.499 24.3287 117.308 24.9302 116.954 25.468C116.601 26.0058 116.127 26.4303 115.532 26.7417C114.938 27.053 114.273 27.2087 113.537 27.2087ZM114.004 24.6401C114.527 24.6401 114.98 24.5269 115.362 24.3004C115.759 24.0598 116.063 23.7344 116.275 23.3239C116.502 22.8994 116.615 22.4111 116.615 21.8592C116.615 21.3214 116.502 20.8473 116.275 20.4369C116.063 20.0123 115.759 19.6868 115.362 19.4604C114.98 19.2198 114.534 19.0995 114.025 19.0995C113.501 19.0995 113.041 19.2198 112.645 19.4604C112.263 19.701 111.959 20.0265 111.732 20.4369C111.52 20.8473 111.414 21.3214 111.414 21.8592C111.414 22.4111 111.52 22.8994 111.732 23.3239C111.959 23.7344 112.27 24.0598 112.666 24.3004C113.063 24.5269 113.508 24.6401 114.004 24.6401ZM119.226 26.9964H116.466V24.2368L116.912 21.7318L116.445 19.2694V11.6484H119.226V26.9964Z" fill="black"/>
<path d="M101.94 27.2088C100.906 27.2088 99.9724 26.9753 99.1374 26.5082C98.3166 26.0271 97.6585 25.3831 97.1632 24.5765C96.682 23.7557 96.4414 22.8428 96.4414 21.838C96.4414 20.8332 96.682 19.9346 97.1632 19.1421C97.6443 18.3354 98.3024 17.6985 99.1374 17.2315C99.9724 16.7504 100.899 16.5098 101.918 16.5098C102.966 16.5098 103.9 16.7504 104.72 17.2315C105.555 17.6985 106.213 18.3354 106.695 19.1421C107.176 19.9346 107.416 20.8332 107.416 21.838C107.416 22.8428 107.176 23.7557 106.695 24.5765C106.213 25.3831 105.555 26.0271 104.72 26.5082C103.9 26.9753 102.973 27.2088 101.94 27.2088ZM101.918 24.6189C102.442 24.6189 102.902 24.5057 103.298 24.2793C103.709 24.0387 104.02 23.7132 104.232 23.3028C104.459 22.8782 104.572 22.397 104.572 21.8593C104.572 21.3215 104.459 20.8474 104.232 20.437C104.006 20.0266 103.694 19.7081 103.298 19.4817C102.902 19.2411 102.442 19.1208 101.918 19.1208C101.409 19.1208 100.956 19.2411 100.56 19.4817C100.163 19.7081 99.8521 20.0266 99.6256 20.437C99.3992 20.8474 99.286 21.3215 99.286 21.8593C99.286 22.397 99.3992 22.8782 99.6256 23.3028C99.8521 23.7132 100.163 24.0387 100.56 24.2793C100.956 24.5057 101.409 24.6189 101.918 24.6189Z" fill="black"/>
<path d="M91.7391 27.2088C90.6918 27.2088 89.7507 26.9753 88.9157 26.5082C88.0807 26.0412 87.4227 25.4044 86.9415 24.5977C86.4603 23.791 86.2197 22.8853 86.2197 21.8805C86.2197 20.8615 86.4603 19.9487 86.9415 19.1421C87.4227 18.3354 88.0807 17.6985 88.9157 17.2315C89.7648 16.7504 90.706 16.5098 91.7391 16.5098C92.5457 16.5098 93.2887 16.6584 93.968 16.9556C94.6473 17.2528 95.2346 17.6773 95.73 18.2292L93.9468 20.0336C93.6779 19.7365 93.3524 19.51 92.9703 19.3543C92.6023 19.1987 92.1919 19.1208 91.7391 19.1208C91.2296 19.1208 90.7696 19.2411 90.3592 19.4817C89.963 19.7081 89.6445 20.0266 89.404 20.437C89.1775 20.8332 89.0643 21.3073 89.0643 21.8593C89.0643 22.397 89.1775 22.8782 89.404 23.3028C89.6445 23.7132 89.963 24.0387 90.3592 24.2793C90.7696 24.5057 91.2296 24.6189 91.7391 24.6189C92.2061 24.6189 92.6236 24.5411 92.9915 24.3854C93.3736 24.2156 93.6991 23.975 93.968 23.6637L95.7724 25.4681C95.2488 26.0341 94.6473 26.4658 93.968 26.763C93.2887 27.0602 92.5457 27.2088 91.7391 27.2088Z" fill="black"/>
<path d="M80.6185 26.9966V12.4766H83.3994V26.9966H80.6185ZM78.2197 19.1847V16.7434H85.7982V19.1847H78.2197Z" fill="black"/>
<path d="M72.3893 26.9956V15.6385C72.3893 14.8176 72.5662 14.0959 72.92 13.4732C73.2738 12.8364 73.7762 12.334 74.4272 11.966C75.0782 11.598 75.8424 11.4141 76.7198 11.4141C77.385 11.4141 77.9581 11.5273 78.4393 11.7537C78.9205 11.9801 79.3521 12.2915 79.7342 12.6878L77.9723 14.4709C77.8166 14.3152 77.6468 14.195 77.4628 14.11C77.2788 14.0251 77.0453 13.9827 76.7623 13.9827C76.2528 13.9827 75.8565 14.1242 75.5735 14.4072C75.3046 14.6761 75.1702 15.0653 75.1702 15.5748V26.9956H72.3893ZM70.0117 19.1836V16.7423H78.2058V19.1836H70.0117Z" fill="black"/>
<path d="M62.839 27.209C61.905 27.209 61.0629 26.9755 60.3128 26.5085C59.5628 26.0415 58.9755 25.4046 58.5509 24.598C58.1263 23.7913 57.9141 22.8856 57.9141 21.8808C57.9141 20.8618 58.1263 19.949 58.5509 19.1423C58.9755 18.3356 59.5628 17.6988 60.3128 17.2318C61.0629 16.7648 61.905 16.5312 62.839 16.5312C63.5749 16.5312 64.233 16.6798 64.8132 16.977C65.3935 17.2742 65.8534 17.6917 66.1931 18.2295C66.5469 18.7531 66.7379 19.3475 66.7662 20.0127V23.7064C66.7379 24.3857 66.5469 24.9871 66.1931 25.5108C65.8534 26.0344 65.3935 26.4519 64.8132 26.7632C64.233 27.0604 63.5749 27.209 62.839 27.209ZM63.3485 24.6404C64.1268 24.6404 64.7566 24.3857 65.2378 23.8762C65.719 23.3526 65.9595 22.6803 65.9595 21.8595C65.9595 21.3217 65.8463 20.8476 65.6199 20.4372C65.4076 20.0127 65.1033 19.6872 64.7071 19.4607C64.325 19.2202 63.8721 19.0999 63.3485 19.0999C62.839 19.0999 62.3861 19.2202 61.9899 19.4607C61.6078 19.6872 61.3035 20.0127 61.0771 20.4372C60.8648 20.8476 60.7586 21.3217 60.7586 21.8595C60.7586 22.4115 60.8648 22.8997 61.0771 23.3243C61.3035 23.7347 61.6078 24.0602 61.9899 24.3008C62.3861 24.5272 62.839 24.6404 63.3485 24.6404ZM65.8109 26.9967V24.2371L66.2567 21.7322L65.8109 19.2697V16.7435H68.5706V26.9967H65.8109Z" fill="black"/>
<path d="M50.0088 26.9967V16.7435H52.7897V26.9967H50.0088ZM52.7897 21.3288L51.707 20.6071C51.8344 19.3475 52.2024 18.3569 52.8109 17.6351C53.4195 16.8992 54.2969 16.5312 55.4432 16.5312C55.9385 16.5312 56.3843 16.6162 56.7806 16.786C57.1768 16.9417 57.5377 17.2035 57.8632 17.5714L56.1225 19.5669C55.9668 19.3971 55.7758 19.2697 55.5493 19.1848C55.3371 19.0999 55.0894 19.0574 54.8064 19.0574C54.212 19.0574 53.7237 19.2485 53.3416 19.6306C52.9737 19.9985 52.7897 20.5646 52.7897 21.3288Z" fill="black"/>
<path d="M42.0035 31.5396C40.9138 31.5396 39.9515 31.3414 39.1165 30.9452C38.2815 30.5631 37.6164 30.0182 37.121 29.3106L38.883 27.5487C39.2792 28.0157 39.718 28.3695 40.1991 28.6101C40.6945 28.8648 41.2888 28.9922 41.9823 28.9922C42.8456 28.9922 43.5249 28.7728 44.0202 28.3341C44.5297 27.8954 44.7844 27.2869 44.7844 26.5085V23.9399L45.2514 21.6897L44.8057 19.4395V16.7435H47.5653V26.466C47.5653 27.485 47.3247 28.3695 46.8436 29.1196C46.3765 29.8838 45.7255 30.4782 44.8906 30.9027C44.0556 31.3273 43.0932 31.5396 42.0035 31.5396ZM41.8762 26.7208C40.9563 26.7208 40.1284 26.5014 39.3925 26.0627C38.6566 25.6098 38.0763 24.9942 37.6518 24.2159C37.2413 23.4375 37.0361 22.5671 37.0361 21.6048C37.0361 20.6424 37.2413 19.7792 37.6518 19.0149C38.0763 18.2507 38.6566 17.6493 39.3925 17.2106C40.1284 16.7577 40.9563 16.5312 41.8762 16.5312C42.6404 16.5312 43.3126 16.6798 43.8928 16.977C44.4872 17.2742 44.9542 17.6846 45.2939 18.2083C45.6335 18.7178 45.8175 19.3192 45.8458 20.0127V23.2394C45.8175 23.9187 45.6265 24.5272 45.2727 25.065C44.933 25.5886 44.466 25.999 43.8716 26.2962C43.2914 26.5793 42.6262 26.7208 41.8762 26.7208ZM42.4281 24.1946C42.9376 24.1946 43.3763 24.0885 43.7442 23.8762C44.1263 23.6498 44.4235 23.3455 44.6358 22.9634C44.8481 22.5671 44.9542 22.1213 44.9542 21.626C44.9542 21.1165 44.8481 20.6707 44.6358 20.2886C44.4235 19.9065 44.1263 19.6093 43.7442 19.3971C43.3763 19.1706 42.9376 19.0574 42.4281 19.0574C41.9186 19.0574 41.4728 19.1706 41.0907 19.3971C40.7086 19.6093 40.4114 19.9136 40.1991 20.3099C39.9869 20.692 39.8807 21.1307 39.8807 21.626C39.8807 22.1072 39.9869 22.5459 40.1991 22.9422C40.4114 23.3243 40.7086 23.6285 41.0907 23.855C41.4728 24.0814 41.9186 24.1946 42.4281 24.1946Z" fill="black"/>
<defs>
<linearGradient id="paint0_linear_18783_37937" x1="7.37476" y1="26.7417" x2="24.2586" y2="-2.49217" gradientUnits="userSpaceOnUse">
<stop stop-color="#DA1A60"/>
<stop offset="1" stop-color="#A8228D"/>
</linearGradient>
<linearGradient id="paint1_linear_18783_37937" x1="11.8533" y1="34.9941" x2="25.0617" y2="12.1237" gradientUnits="userSpaceOnUse">
<stop stop-color="#DA1A60"/>
<stop offset="1" stop-color="#A8228D"/>
</linearGradient>
<clipPath id="clip0_18783_37937">
<rect width="28.3042" height="28.3042" fill="white" transform="translate(1.65723 0.800781)"/>
</clipPath>
</defs>
</svg>
